# xmcd CD database file
#
# Track frame offsets:
#	150
#	22633
#	48246
#	71878
#	80415
#	104211
#	125494
#	147729
#	155904
#	179145
#	208381
#	239504
#	263527
#
# Disc length: 3797 seconds
#
# Revision: 6
# Processed by: cddbd v1.5.2PL0 Copyright (c) Steve Scherf et al.
# Submitted via: CDex 1.70beta2
#
DISCID=cc0ed30d
DTITLE=Schiller - Symphonia (Limited Super Deluxe Edition) Disc 2
DYEAR=2014
DGENRE=New Age
TTITLE0=Sommernacht
TTITLE1=Berlin Moskau
TTITLE2=Tired (Mit Jaël)
TTITLE3=Leben... I Feel You (Instrumental)
TTITLE4=Tiefblau
TTITLE5=Solveig's Song (Mit Eva Mali)
TTITLE6=Let It Rise (Mit Midge Ure)
TTITLE7=White
TTITLE8=Das Glockenspiel
TTITLE9=Sonne (Mit Unheilig)
TTITLE10=Nachtflug
TTITLE11=Vienna (Mit Midge Ure)
TTITLE12=Berlin Berlin
EXTD=YEAR: 2014
EXTT0=
EXTT1=
EXTT2=
EXTT3=
EXTT4=
EXTT5=
EXTT6=
EXTT7=
EXTT8=
EXTT9=
EXTT10=
EXTT11=
EXTT12=
PLAYORDER=
